<svg id="Layer_1" data-name="Layer 1" xmlns="http://www.w3.org/2000/svg" viewBox="0 0 1029.49 362.58"><defs><style>.cls-1{fill:#ef0325;}.cls-2{fill:#fff;}</style></defs><path class="cls-1" d="M354.69,216.44H254.52V251h98.36V264.6H254.52v50.19a33,33,0,0,0,32.79,32.79H387.47V249.22a33,33,0,0,0-32.78-32.78ZM352.88,313H289.11V294.9h63.77Z"/><path class="cls-1" d="M510,216.44H409.86V347.58h34.6V251h63.76v96.55h34.6V249.22A33,33,0,0,0,510,216.44Z"/><path class="cls-1" d="M665.37,305.52V313H601.6V216.44H567v98.35a33,33,0,0,0,32.79,32.79h67.38A33,33,0,0,0,700,314.79V216.44h-34.6Z"/><path class="cls-1" d="M822.52,305.52V313H758.75V216.44H724.16v98.35A33,33,0,0,0,757,347.58h67.38a33,33,0,0,0,32.79-32.79V216.44h-34.6Z"/><path class="cls-1" d="M1004.88,226.16a31.41,31.41,0,0,0-23.18-9.72H881.53V347.58h34.6V251h63.76v96.55h34.6V249.22A31.72,31.72,0,0,0,1004.88,226.16Z"/><path class="cls-1" d="M98,347.58h81.58v-89A264.59,264.59,0,0,1,98,284.72Z"/><path class="cls-1" d="M179.54,15,98,96.58V201.36a307.61,307.61,0,0,0,81.58-16.66V96.58H211L340.23,15Z"/><path class="cls-2" d="M15.57,196l-.15,0Z"/><path class="cls-2" d="M15.23,195.92Z"/><path class="cls-2" d="M251.32,91.61l30.77,8.85C301.29,88.81,342,51.4,342,51.4s-50.54,92.61-162.47,132A307.61,307.61,0,0,1,98,200.1,361.32,361.32,0,0,1,15.57,196l57.09,65.19s131.43,8.42,249.23-146.92h0l41.38,10.63L364.7,20Z"/></svg>